# xmcd
#
# Track frame offsets:
#	150
#	15680
#	26553
#	39104
#	55034
#	69265
#	97211
#	112032
#	125839
#	133149
#	147658
#	161095
#	177207
#	192917
#	209177
#	233764
#	246862
#	258049
#
# Disc length: 3650 seconds
#
# Revision: 1
# Processed by: cddbd v1.5.2PL0 Copyright (c) Steve Scherf et al.
# Submitted via: audiograbber 1.83.01
#
DISCID=0b0e4012
DTITLE=Luis Carlos and Fabiano Rancharia  - Viola Sempre Viola
DYEAR=2014
DGENRE=Country
TTITLE0=A cobica
TTITLE1=Uirapuru
TTITLE2=Canoeiro
TTITLE3=Jeitao de caboclo
TTITLE4=Casando fugido
TTITLE5=Quarto vizinho/Parede e meia
TTITLE6=Relogio quebrado
TTITLE7=O caipira
TTITLE8=Oracao - Asa Branca
TTITLE9=Peao aposentado
TTITLE10=Boi tufao
TTITLE11=Prato do dia
TTITLE12=Bbbreja
TTITLE13=Pescador e catireiro
TTITLE14=Seguindo seus passos/Arrependida
TTITLE15=Chega de stress
TTITLE16=Palavra maldita
TTITLE17=Arapo
EXTD=
EXTT0=
EXTT1=
EXTT2=
EXTT3=
EXTT4=
EXTT5=
EXTT6=
EXTT7=
EXTT8=
EXTT9=
EXTT10=
EXTT11=
EXTT12=
EXTT13=
EXTT14=
EXTT15=
EXTT16=
EXTT17=
PLAYORDER=
